<svg height="367pt" viewBox="0 -18 367.79596 367" width="367pt" xmlns="http://www.w3.org/2000/svg" xmlns:xlink="http://www.w3.org/1999/xlink"><linearGradient id="a"><stop offset="0" stop-color="#4761ac"/><stop offset=".1893" stop-color="#496db4"/><stop offset=".5319" stop-color="#4d8dca"/><stop offset=".986" stop-color="#54c0ee"/><stop offset="1" stop-color="#54c2ef"/></linearGradient><linearGradient id="b" gradientTransform="matrix(1.000555 0 0 -1.000555 -.000039 349.917999)" gradientUnits="userSpaceOnUse" x1="-11.9604" x2="382.7187" xlink:href="#a" y1="98.099" y2="98.099"/><linearGradient id="c" gradientTransform="matrix(1.000555 0 0 -1.000555 -.000039 349.917999)" gradientUnits="userSpaceOnUse" x1="-11.9604" x2="382.7187" xlink:href="#a" y1="61.3356" y2="61.3356"/><linearGradient id="d" gradientTransform="matrix(1.000555 0 0 -1.000555 -.000039 349.917999)" gradientUnits="userSpaceOnUse" x1="-11.9604" x2="382.7187" xlink:href="#a" y1="183.7521" y2="183.7521"/><path d="m79.859375 221.113281c-16.929687 0-30.652344 13.722657-30.652344 30.652344s13.722657 30.652344 30.652344 30.652344 30.652344-13.722657 30.652344-30.652344c-.019531-16.921875-13.730469-30.632813-30.652344-30.652344zm0 49.042969c-10.15625 0-18.390625-8.234375-18.390625-18.390625 0-10.160156 8.234375-18.394531 18.390625-18.394531 10.160156 0 18.394531 8.234375 18.394531 18.394531-.011718 10.152344-8.242187 18.378906-18.394531 18.390625zm0 0" fill="url(#b)"/><path d="m251.519531 270.15625c-10.160156 0-18.394531 8.234375-18.394531 18.394531 0 10.15625 8.234375 18.390625 18.394531 18.390625 10.15625 0 18.390625-8.234375 18.390625-18.390625-.011718-10.15625-8.238281-18.382812-18.390625-18.394531zm0 24.523438c-3.386719 0-6.132812-2.746094-6.132812-6.128907 0-3.386719 2.746093-6.132812 6.132812-6.132812 3.382813 0 6.128907 2.746093 6.128907 6.132812-.003907 3.382813-2.746094 6.125-6.128907 6.128907zm0 0" fill="url(#c)"/><path d="m360.90625 215.054688-41.949219 6.675781v-68.054688c-.011719-10.15625-8.238281-18.382812-18.394531-18.394531h-30.652344v-30.652344c-.011718-10.152344-8.238281-18.382812-18.394531-18.390625h-7.257813c.726563-1.964843 1.109376-4.039062 1.128907-6.132812-.011719-10.152344-8.238281-18.378907-18.390625-18.390625h-98.089844c-10.15625.011718-18.382812 8.238281-18.394531 18.390625.023437 2.09375.402343 4.167969 1.128906 6.132812h-13.390625v-79.699219c0-3.386718-2.742188-6.132812-6.128906-6.132812h-85.828125c-3.386719 0-6.132813 2.746094-6.132813 6.132812v24.523438c0 3.382812 2.746094 6.128906 6.132813 6.128906h55.175781v137.101563c-42.878906 10.117187-69.4375 53.082031-59.320312 95.957031 10.121093 42.878906 53.082031 69.4375 95.960937 59.320312 42.878906-10.117187 69.433594-53.082031 59.316406-95.957031-3.285156-13.929687-10.257812-26.71875-20.1875-37.023437h95.886719v53.242187c-21.4375 10.144531-30.589844 35.746094-20.449219 57.183594 10.144531 21.433594 35.746094 30.589844 57.183594 20.449219 21.433594-10.144532 30.589844-35.746094 20.449219-57.183594-1.09375-2.304688-2.386719-4.507812-3.871094-6.585938.601562.207032 1.230469.316407 1.863281.328126.339844 0 .675781-.027344 1.007813-.082032l73.570312-12.261718c2.953125-.492188 5.121094-3.050782 5.121094-6.046876v-24.519531c0-3.386719-2.742188-6.132812-6.128906-6.132812-.324219 0-.644532.023437-.964844.074219zm-323.960938-190.125h-24.523437v-12.257813h24.523437zm91.960938 49.046874h98.089844c3.386718 0 6.128906 2.742188 6.128906 6.128907s-2.742188 6.132812-6.128906 6.132812h-98.089844c-3.386719 0-6.132812-2.746093-6.132812-6.132812s2.746093-6.128907 6.132812-6.128907zm-30.65625 24.523438h153.265625c3.386719.003906 6.128906 2.746094 6.132813 6.128906v30.652344h-12.261719v-18.390625c0-3.386719-2.746094-6.132813-6.132813-6.132813h-141.003906zm0 24.519531h134.875v12.261719h-134.875zm-49.042969-98.089843v-12.257813h36.78125v159.707031c-2.027343-.15625-4.058593-.3125-6.128906-.3125s-4.101563.15625-6.128906.3125v-141.316406c0-3.386719-2.746094-6.132812-6.132813-6.132812zm98.089844 226.835937c0 37.242187-30.191406 67.4375-67.4375 67.4375s-67.4375-30.195313-67.4375-67.4375c0-37.246094 30.191406-67.4375 67.4375-67.4375 37.226563.039063 67.394531 30.210937 67.4375 67.4375zm-24.90625-67.4375c-.066406 0-.121094.035156-.1875.035156-7.375-4.652343-15.46875-8.054687-23.953125-10.070312v-26.75h159.398438v36.785156zm135.257813 12.261719v49.535156c-4.0625-.652344-8.199219-.652344-12.261719 0v-49.535156zm-6.128907 122.613281c-16.929687 0-30.652343-13.726563-30.652343-30.652344 0-16.929687 13.722656-30.65625 30.652343-30.65625 16.929688 0 30.652344 13.726563 30.652344 30.65625-.019531 16.917969-13.734375 30.632813-30.652344 30.652344zm18.390625-69.371094v-77.765625h12.261719v85.828125c.042969.300781.105469.601563.195313.894531-3.582032-3.707031-7.800782-6.742187-12.457032-8.957031zm85.828125-9.390625-61.304687 10.214844v-84.71875c0-3.386719-2.746094-6.132812-6.128906-6.132812h-18.394532v-12.261719h30.652344c3.382812.003906 6.125 2.746093 6.128906 6.132812v75.234375c0 3.386719 2.742188 6.132813 6.128906 6.132813.324219 0 .648438-.023438.96875-.074219l41.949219-6.671875zm0 0" fill="url(#d)"/></svg>